<svg width="35" height="35" viewBox="0 0 35 35" fill="none" xmlns="http://www.w3.org/2000/svg">
<g clip-path="url(#clip0_9369_255)">
<path d="M9.11585 0.716797L1.16429 8.07227C0.789679 8.40859 0.622883 8.92266 0.732258 9.41758C0.841633 9.90977 1.20804 10.3063 1.69202 10.4539C2.17601 10.6016 2.70101 10.4785 3.06741 10.1285L7.71585 5.82734V32.9004C7.70765 33.4063 7.97288 33.8738 8.41038 34.1281C8.84515 34.3852 9.38655 34.3852 9.82132 34.1281C10.2588 33.8738 10.5241 33.4063 10.5159 32.9004V5.82734L15.1643 10.1285C15.5307 10.4785 16.0557 10.6016 16.5397 10.4539C17.0237 10.3063 17.3901 9.90977 17.4994 9.41758C17.6088 8.92266 17.442 8.40859 17.0674 8.07227L9.11585 0.716797Z" fill="white"/>
<path d="M25.9154 34.3213L33.867 26.9658C34.2416 26.6295 34.4084 26.1154 34.299 25.6205C34.1896 25.1283 33.8232 24.7318 33.3392 24.5842C32.8552 24.4365 32.3302 24.5596 31.9638 24.9096L27.3154 29.2107V2.13769C27.3236 1.63183 27.0584 1.16426 26.6209 0.909958C26.1861 0.652927 25.6447 0.652927 25.2099 0.909958C24.7724 1.16426 24.5072 1.63183 24.5154 2.13769V29.2107L19.867 24.9096C19.5006 24.5596 18.9756 24.4365 18.4916 24.5842C18.0076 24.7318 17.6412 25.1283 17.5318 25.6205C17.4224 26.1154 17.5892 26.6295 17.9638 26.9658L25.9154 34.3213Z" fill="white"/>
</g>
<defs>
<clipPath id="clip0_9369_255">
<rect width="35" height="35" fill="white"/>
</clipPath>
</defs>
</svg>
