<svg width="45" height="45" viewBox="0 0 45 45" fill="none" xmlns="http://www.w3.org/2000/svg">
<path d="M38.4143 21.4613C38.2737 24.7153 37.4693 27.2981 36.0021 29.2106C34.5349 31.1231 32.5605 32.0784 30.0837 32.0784C28.9896 32.0784 28.0465 31.8431 27.2515 31.3734C26.4574 30.9056 25.8584 30.2297 25.4505 29.3541C24.1802 31.1325 22.5209 32.0231 20.4752 32.0231C18.6199 32.0231 17.1837 31.2403 16.1684 29.6775C15.1521 28.1138 14.7696 26.0503 15.0237 23.4834C15.2524 21.3872 15.784 19.5206 16.6165 17.8875C17.448 16.2563 18.4999 15 19.7702 14.1234C21.0405 13.2469 22.413 12.8081 23.8877 12.8081C25.7046 12.8081 27.2552 13.2281 28.5387 14.0681L29.7396 14.8866L28.7684 25.9031C28.6409 26.9062 28.7515 27.6759 29.1021 28.2084C29.4509 28.7428 30.0068 29.0091 30.769 29.0091C31.938 29.0091 32.9168 28.3256 33.7043 26.9587C34.4918 25.5938 34.924 23.8069 35.0009 21.5934C35.2165 17.1581 34.3249 13.7484 32.3243 11.3681C30.3218 8.98594 27.3574 7.79344 23.4321 7.79344C20.9787 7.79344 18.7934 8.41594 16.8752 9.66187C14.9562 10.9078 13.443 12.6778 12.3387 14.9719C11.2324 17.2641 10.609 19.8909 10.4693 22.8525C10.2668 27.3506 11.1687 30.8297 13.1768 33.2878C15.184 35.7469 18.1896 36.9759 22.1927 36.9759C23.2474 36.9759 24.3527 36.8597 25.5096 36.6234C26.6646 36.3881 27.664 36.0731 28.5012 35.6803L29.2259 38.6147C28.4505 39.1237 27.4062 39.5344 26.089 39.8456C24.7755 40.1587 23.4499 40.3125 22.1159 40.3125C18.7605 40.3125 15.9021 39.6347 13.5387 38.2837C11.1752 36.93 9.41179 34.9359 8.24929 32.2978C7.08679 29.6606 6.58148 26.5106 6.73335 22.8534C6.88523 19.3444 7.68585 16.2 9.13617 13.4184C10.5837 10.635 12.5562 8.48344 15.0546 6.9675C17.5502 5.44781 20.3684 4.6875 23.5071 4.6875C26.6955 4.6875 29.4415 5.37094 31.7412 6.73687C34.0399 8.10187 35.7621 10.0556 36.9068 12.5972C38.0515 15.1388 38.553 18.0928 38.4143 21.4613ZM19.2565 23.4816C19.1159 25.1588 19.263 26.4328 19.6952 27.3028C20.1255 28.1737 20.8259 28.6106 21.7915 28.6106C22.414 28.6106 23.0046 28.3369 23.5643 27.7894C24.123 27.2428 24.588 26.4563 24.9555 25.4259L25.7562 16.41C25.2621 16.2441 24.7521 16.1625 24.2318 16.1625C22.7702 16.1625 21.6359 16.785 20.8296 18.03C20.0215 19.275 19.4974 21.0938 19.2565 23.4816Z" fill="#2196F3"/>
</svg>
