<svg width="33" height="31" viewBox="0 0 33 31" fill="none" xmlns="http://www.w3.org/2000/svg">
<path d="M31.8984 0.100098H25.5984C25.3184 0.100098 25.0384 0.240098 24.9684 0.520098L16.4984 21.0301L8.02844 0.520098C7.95844 0.240098 7.67844 0.100098 7.39844 0.100098H1.09844C0.678437 0.100098 0.398438 0.380098 0.398438 0.800098V30.2001C0.398438 30.6201 0.678437 30.9001 1.09844 30.9001H5.99844C6.41844 30.9001 6.69844 30.6201 6.69844 30.2001V11.3001H7.18844L14.2584 28.3801C14.3984 28.6601 14.6084 28.8001 14.8884 28.8001H18.1784C18.4584 28.8001 18.7384 28.6601 18.8084 28.3801L25.8084 11.3001H26.2984V30.2001C26.2984 30.6201 26.5784 30.9001 26.9984 30.9001H31.8984C32.3184 30.9001 32.5984 30.6201 32.5984 30.2001V0.800098C32.5984 0.380098 32.3184 0.100098 31.8984 0.100098Z" fill="white"/>
</svg>
