<svg width="35" height="35" viewBox="0 0 35 35" fill="none" xmlns="http://www.w3.org/2000/svg">
<path d="M23.4719 0C21.0602 0 18.7961 0.978907 16.9531 2.82187C14.8586 4.91367 13.9152 7.47031 14.1969 10.2375C14.4484 12.693 15.709 15.184 17.7625 17.2375C20.0949 19.5754 22.9113 20.8687 25.6813 20.8687C28.093 20.8687 30.3352 19.8898 32.1781 18.0469C34.2727 15.9551 35.2379 13.3766 34.9563 10.6094C34.7074 8.15391 33.425 5.68477 31.3688 3.63125C29.0309 1.29336 26.2391 0 23.4719 0ZM23.7125 4.70312C25.2273 4.70312 26.8133 5.46055 28.175 6.825C29.3863 8.03359 30.1355 9.44453 30.275 10.8062C30.4199 12.2227 29.9168 13.5516 28.8094 14.6562C27.8195 15.6461 26.6684 16.1656 25.4188 16.1656C23.9039 16.1656 22.3207 15.4055 20.9563 14.0437C19.7449 12.8352 18.9957 11.4242 18.8563 10.0625C18.7113 8.64609 19.2391 7.29531 20.3438 6.19062C21.3336 5.20078 22.4629 4.70312 23.7125 4.70312ZM14.9406 15.9906L0.853125 30.1C0.308984 30.6441 0 31.366 0 32.1344C0 32.9027 0.308984 33.6246 0.853125 34.1688C1.39453 34.7102 2.09727 35 2.86563 35C3.63398 35 4.35586 34.7102 4.9 34.1688L18.9875 20.0594C18.2137 19.5316 17.4809 18.9246 16.7781 18.2219C16.0781 17.5219 15.4711 16.7699 14.9406 15.9906ZM4.24375 22.4875C3.44805 22.4875 2.84375 23.0754 2.20938 23.7125L1.24688 24.675C0.607032 25.3121 0 25.9109 0 26.7094C0 27.1578 0.199609 27.5871 0.590625 27.9781L0.7875 28.175L5.6875 23.2531L5.5125 23.0781C5.12148 22.6871 4.69219 22.4875 4.24375 22.4875Z" fill="white"/>
</svg>
