<svg width="37" height="37" viewBox="0 0 37 37" fill="none" xmlns="http://www.w3.org/2000/svg">
<path d="M18.5 0.5C8.5595 0.5 0.5 8.5595 0.5 18.5C0.5 28.4405 8.5595 36.5 18.5 36.5C28.4405 36.5 36.5 28.4405 36.5 18.5C36.5 8.5595 28.4405 0.5 18.5 0.5ZM14 27.5C9.029 27.5 5 23.471 5 18.5C5 13.529 9.029 9.5 14 9.5C16.34 9.5 18.4715 10.394 20.0705 11.8595L17.9195 13.9655C16.868 13.0535 15.5 12.5 14 12.5C10.6865 12.5 8 15.1865 8 18.5C8 21.8135 10.6865 24.5 14 24.5C16.9715 24.5 19.433 22.337 19.91 19.5005H14V16.5005H22.7645L22.814 16.7C22.934 17.282 23 17.8835 23 18.5C23 23.471 18.971 27.5 14 27.5ZM30.5 20V23H27.5V20H24.5V17H27.5V14H30.5V17H33.5V20H30.5Z" fill="white"/>
</svg>
