<svg width="45" height="45" viewBox="0 0 45 45" fill="none" xmlns="http://www.w3.org/2000/svg">
<path d="M5.15625 37.9688H39.8438C41.6559 37.9688 43.125 36.4997 43.125 34.6875V10.3125C43.125 8.50031 41.6559 7.03125 39.8438 7.03125H5.15625C3.34406 7.03125 1.875 8.50031 1.875 10.3125V34.6875C1.875 36.4997 3.34406 37.9688 5.15625 37.9688Z" fill="#E0E0E0"/>
<path d="M24.375 37.9688H39.8438C41.6559 37.9688 43.125 36.4997 43.125 34.6875V10.3125C43.125 8.50031 41.6559 7.03125 39.8438 7.03125H5.15625C3.34406 7.03125 1.875 8.50031 1.875 10.3125L24.375 37.9688Z" fill="#D9D9D9"/>
<path d="M6.32422 37.9688H39.8445C41.6567 37.9688 43.1258 36.4997 43.1258 34.6875V10.7812L6.32422 37.9688Z" fill="#EEEEEE"/>
<path d="M24.1358 37.9688H39.8436C41.6558 37.9688 43.1248 36.4997 43.1248 34.6875V10.7812L17.5977 29.64L24.1358 37.9688Z" fill="#E0E0E0"/>
<path d="M39.8438 8.90605H5.15625C3.34406 8.90605 1.875 8.50011 1.875 10.3123V34.6873C1.875 36.4995 3.34406 37.9685 5.15625 37.9685H6.5625V11.2498H38.4375V37.9685H39.8438C41.6559 37.9685 43.125 36.4995 43.125 34.6873V10.3123C43.125 8.50011 41.6559 8.90605 39.8438 8.90605Z" fill="#CA3737"/>
<path d="M39.8438 7.03125H22.5H5.15625C3.34406 7.03125 1.875 8.47125 1.875 10.3125C1.875 11.4431 3.29812 12.4294 3.29812 12.4294L22.5 26.0212L41.7019 12.4303C41.7019 12.4303 43.125 11.4431 43.125 10.3134C43.125 8.47125 41.6559 7.03125 39.8438 7.03125Z" fill="#F5F5F5"/>
<path d="M40.5431 7.1084L22.5 19.6878L4.45688 7.1084C2.98125 7.42434 1.875 8.71621 1.875 10.3128C1.875 11.4434 3.29812 12.4296 3.29812 12.4296L22.5 26.0215L41.7019 12.4306C41.7019 12.4306 43.125 11.4434 43.125 10.3137C43.125 8.71621 42.0187 7.42434 40.5431 7.1084Z" fill="#E84F4B"/>
</svg>
