<svg width="25" height="25" viewBox="0 0 25 25" fill="none" xmlns="http://www.w3.org/2000/svg">
<path d="M24.0273 11.823C24.0362 11.823 24.0444 11.823 24.0532 11.823C24.3228 11.823 24.5791 11.7081 24.759 11.5074C24.9446 11.2998 25.0298 11.0209 24.9907 10.7452C24.2142 5.18332 19.7845 0.76804 14.2192 0.00828636C13.9439 -0.027682 13.6706 0.0543511 13.4642 0.236717C13.2577 0.419083 13.141 0.683482 13.1441 0.958609C13.2565 9.95007 14.8839 11.575 24.0273 11.823ZM24.028 13.1759C14.8827 13.4188 13.2552 15.0437 13.1441 24.0415C13.141 24.3172 13.2577 24.5804 13.4642 24.7627C13.6378 24.9167 13.8619 25 14.091 25C14.1333 25 14.1763 24.9975 14.2192 24.9912C19.7858 24.2314 24.2155 19.8155 24.9907 14.253C25.0298 13.9773 24.9446 13.699 24.759 13.4914C24.5728 13.2838 24.3038 13.162 24.028 13.1759ZM0.970557 13.1708C0.694057 13.1569 0.425764 13.2787 0.2408 13.4863C0.0552042 13.6939 -0.029387 13.9722 0.00912092 14.2473C0.782436 19.813 5.21211 24.2308 10.7812 24.9912C10.8242 24.9968 10.8671 25 10.9094 25C11.1385 25 11.3626 24.9167 11.5362 24.7627C11.7427 24.5804 11.8595 24.3172 11.8563 24.0415C11.7452 15.0292 10.1171 13.4037 0.970557 13.1708ZM10.7812 0.00891734C5.21211 0.769302 0.782436 5.1871 0.00912092 10.7527C-0.029387 11.0285 0.0552042 11.3061 0.2408 11.5138C0.420083 11.715 0.677013 11.8293 0.946568 11.8293C0.954775 11.8293 0.96235 11.8293 0.970557 11.8293C10.1171 11.5964 11.7452 9.9709 11.8563 0.958609C11.8595 0.682851 11.7427 0.419714 11.5362 0.237348C11.3305 0.0556131 11.0584 -0.027051 10.7812 0.00891734Z" fill="#F3F3F3"/>
</svg>
