<svg width="30" height="29" viewBox="0 0 30 29" fill="none" xmlns="http://www.w3.org/2000/svg">
<path d="M1.85841 11.9904C0.619469 10.6625 0 8.98947 0 6.97115C0 4.95284 0.619469 3.29304 1.85841 1.99176C3.09734 0.66392 4.69027 0 6.63717 0C8.58407 0 10.177 0.66392 11.4159 1.99176C12.6549 3.29304 13.2743 4.95284 13.2743 6.97115C13.2743 8.98947 12.6549 10.6625 11.4159 11.9904C10.177 13.2917 8.58407 13.9423 6.63717 13.9423C4.69027 13.9423 3.09734 13.2917 1.85841 11.9904ZM4.74083 4.82005C4.26043 5.37775 4.02023 6.09478 4.02023 6.97115C4.02023 7.84753 4.26043 8.56456 4.74083 9.12225C5.24652 9.67995 5.87863 9.95879 6.63717 9.95879C7.3957 9.95879 8.01517 9.67995 8.49557 9.12225C9.00126 8.56456 9.25411 7.84753 9.25411 6.97115C9.25411 6.09478 9.00126 5.37775 8.49557 4.82005C8.01517 4.26236 7.3957 3.98352 6.63717 3.98352C5.87863 3.98352 5.24652 4.26236 4.74083 4.82005ZM18.5841 27.0481C17.3451 25.7202 16.7257 24.0472 16.7257 22.0288C16.7257 20.0105 17.3451 18.3507 18.5841 17.0495C19.823 15.7216 21.4159 15.0577 23.3628 15.0577C25.3097 15.0577 26.9027 15.7216 28.1416 17.0495C29.3805 18.3507 30 20.0105 30 22.0288C30 24.0472 29.3805 25.7202 28.1416 27.0481C26.9027 28.3494 25.3097 29 23.3628 29C21.4159 29 19.823 28.3494 18.5841 27.0481ZM21.4665 19.8777C20.9861 20.4354 20.7459 21.1525 20.7459 22.0288C20.7459 22.9052 20.9861 23.6223 21.4665 24.1799C21.9722 24.7376 22.6043 25.0165 23.3628 25.0165C24.1214 25.0165 24.7408 24.7376 25.2212 24.1799C25.7269 23.6223 25.9798 22.9052 25.9798 22.0288C25.9798 21.1525 25.7269 20.4354 25.2212 19.8777C24.7408 19.3201 24.1214 19.0412 23.3628 19.0412C22.6043 19.0412 21.9722 19.3201 21.4665 19.8777ZM8.26801 28.8407L5.23388 26.6497L21.732 0.159341L24.7661 2.35028L8.26801 28.8407Z" fill="white"/>
</svg>
