<svg width="35" height="26" viewBox="0 0 35 26" fill="none" xmlns="http://www.w3.org/2000/svg">
<path d="M1.34615 0.384766C0.536359 0.384766 0 0.921124 0 1.73092V20.5771C0 21.3869 0.536359 21.9232 1.34615 21.9232H4.03846C4.30664 19.6358 6.32587 17.7586 8.75 17.7586C11.1741 17.7586 13.1934 19.6358 13.4615 21.9232H18.8462C19.656 21.9232 20.1923 21.3869 20.1923 20.5771V1.73092C20.1923 0.921124 19.656 0.384766 18.8462 0.384766H1.34615ZM14.6394 5.05424C14.8603 5.05424 15.0916 5.14889 15.2284 5.34871L16.0276 6.19005C16.2958 6.45823 16.3063 6.96304 15.9014 7.36794L9.29688 13.9725C8.89198 14.3774 8.3451 14.3774 8.07692 13.9725L4.29087 10.2285C3.88597 9.82362 3.88597 9.27674 4.29087 9.00856L5.13221 8.20928C5.53711 7.80439 6.04192 7.80439 6.3101 8.20928L8.75 10.6071L14.0084 5.34871C14.2082 5.14889 14.4186 5.05424 14.6394 5.05424ZM22.8846 5.76938C22.0748 5.76938 21.5385 6.30574 21.5385 7.11553V20.5771C21.5385 21.2502 22.0748 21.9232 22.8846 21.9232C23.1528 19.6358 25.172 17.7586 27.5962 17.7586C30.0203 17.7586 32.0395 19.4991 32.3077 21.9232H33.6538C34.4636 21.9232 35 21.3869 35 20.5771V13.8463C35 12.6369 33.9062 11.154 33.9062 11.154L30.9615 7.11553C30.2885 6.30574 29.8836 5.76938 28.9423 5.76938H22.8846ZM25.5769 8.46169H28.8161C29.0843 8.46169 29.363 8.71409 29.363 8.71409L32.1815 12.6264C32.4497 13.0312 32.7284 13.4519 32.7284 13.7201H25.5769V8.46169ZM8.75 19.4833C7.04102 19.4833 5.63702 20.8873 5.63702 22.5963C5.63702 24.3053 7.04102 25.7093 8.75 25.7093C10.459 25.7093 11.863 24.3053 11.863 22.5963C11.863 20.8873 10.459 19.4833 8.75 19.4833ZM27.5962 19.4833C25.8872 19.4833 24.4832 20.8873 24.4832 22.5963C24.4832 24.3053 25.8872 25.7093 27.5962 25.7093C29.3051 25.7093 30.7091 24.3053 30.7091 22.5963C30.7091 20.8873 29.3051 19.4833 27.5962 19.4833Z" fill="white"/>
</svg>
