<svg width="45" height="45" viewBox="0 0 45 45" fill="none" xmlns="http://www.w3.org/2000/svg">
<path fill-rule="evenodd" clip-rule="evenodd" d="M22.5 41C32.7173 41 41 32.7173 41 22.5C41 12.2827 32.7173 4 22.5 4C12.2827 4 4 12.2827 4 22.5C4 32.7173 12.2827 41 22.5 41ZM29.0699 26.5312C27.9449 27.2812 26.6324 27.8438 25.2261 28.125L28.9761 31.875C29.7261 32.7188 29.7261 33.9375 28.9761 34.6875C28.1324 35.4375 26.9136 35.4375 26.1636 34.6875L22.5074 31.0312L18.8511 34.6875C18.4761 35.0625 17.9136 35.25 17.4449 35.25C16.8824 35.25 16.4136 35.0625 16.0386 34.6875C15.2886 33.8438 15.2886 32.625 16.0386 31.875L19.7886 28.125C18.4761 27.8438 17.1636 27.2812 15.9449 26.5312C15.0074 25.9688 14.7261 24.75 15.2886 23.8125C15.8511 22.875 17.0699 22.5938 18.0074 23.1562C20.7261 24.8438 24.2886 24.8438 27.0074 23.1562C27.9449 22.5938 29.1636 22.875 29.7261 23.8125C30.2886 24.75 30.0074 25.9688 29.0699 26.5312ZM15.9449 15.5625C15.9449 11.9062 18.8511 9 22.5074 9C26.1636 9 29.0699 11.9062 29.0699 15.5625C29.0699 19.2188 26.1636 22.125 22.5074 22.125C18.8511 22.125 15.9449 19.2188 15.9449 15.5625ZM19.6949 15.5625C19.6949 17.1562 20.9136 18.375 22.5074 18.375C24.1011 18.375 25.3199 17.1562 25.3199 15.5625C25.3199 13.9688 24.1011 12.75 22.5074 12.75C20.9136 12.75 19.6949 13.9688 19.6949 15.5625Z" fill="white"/>
</svg>
