<svg width="45" height="45" viewBox="0 0 45 45" fill="none" xmlns="http://www.w3.org/2000/svg">
<path d="M39.375 34.6875C39.375 37.3125 37.3125 39.375 34.6875 39.375H10.3125C7.6875 39.375 5.625 37.3125 5.625 34.6875V10.3125C5.625 7.6875 7.6875 5.625 10.3125 5.625H34.6875C37.3125 5.625 39.375 7.6875 39.375 10.3125V34.6875Z" fill="#FF9800"/>
<path d="M25.2183 28.5C26.6245 28.2188 27.937 27.6562 29.062 26.9062C29.9995 26.3438 30.2808 25.125 29.7183 24.1875C29.1558 23.25 27.937 22.9688 26.9995 23.5312C24.2808 25.2188 20.7183 25.2188 17.9996 23.5312C17.0621 22.9688 15.8433 23.25 15.2808 24.1875C14.7183 25.125 14.9995 26.3438 15.937 26.9062C17.1558 27.6562 18.4683 28.2188 19.7808 28.5L16.0308 32.25C15.2808 33 15.2808 34.2188 16.0308 35.0625C16.4058 35.4375 16.8745 35.625 17.437 35.625C17.9058 35.625 18.4683 35.4375 18.8433 35.0625L22.4995 31.4062L26.1558 35.0625C26.9058 35.8125 28.1245 35.8125 28.9683 35.0625C29.7183 34.3125 29.7183 33.0938 28.9683 32.25L25.2183 28.5ZM22.4995 9.375C18.8433 9.375 15.937 12.2812 15.937 15.9375C15.937 19.5938 18.8433 22.5 22.4995 22.5C26.1558 22.5 29.062 19.5938 29.062 15.9375C29.062 12.2812 26.1558 9.375 22.4995 9.375ZM22.4995 18.75C20.9058 18.75 19.687 17.5312 19.687 15.9375C19.687 14.3438 20.9058 13.125 22.4995 13.125C24.0933 13.125 25.312 14.3438 25.312 15.9375C25.312 17.5312 24.0933 18.75 22.4995 18.75Z" fill="white"/>
</svg>
