<svg width="25" height="25" viewBox="0 0 25 25" fill="none" xmlns="http://www.w3.org/2000/svg">
<path d="M12.5 0C19.4034 0 25 5.59659 25 12.5C25 19.4034 19.4034 25 12.5 25C5.59659 25 0 19.4034 0 12.5C0 5.59659 5.59659 0 12.5 0ZM16.8119 17.5955C17.0415 16.8903 18.1193 9.85966 18.2517 8.47386C18.292 8.05455 18.1591 7.77557 17.9 7.65057C17.5858 7.5 17.121 7.575 16.5807 7.76989C15.8403 8.03693 6.37727 12.0545 5.83068 12.2875C5.3125 12.508 4.82216 12.7477 4.82216 13.096C4.82216 13.3409 4.96761 13.4784 5.36761 13.621C5.78352 13.7693 6.83182 14.0869 7.4517 14.258C8.0483 14.4227 8.72614 14.2795 9.10682 14.0432C9.50966 13.7926 14.1642 10.679 14.4977 10.4057C14.8312 10.133 15.0977 10.4824 14.825 10.7557C14.5523 11.0284 11.358 14.129 10.9364 14.5585C10.4244 15.0795 10.7875 15.6199 11.1312 15.8364C11.5227 16.0835 14.3409 17.9733 14.7653 18.2767C15.1898 18.5801 15.6199 18.7176 16.0142 18.7176C16.4085 18.717 16.6159 18.1977 16.8119 17.5955Z" fill="#F3F3F3"/>
</svg>
