<svg width="45" height="45" viewBox="0 0 45 45" fill="none" xmlns="http://www.w3.org/2000/svg">
<path d="M39.3739 11.6522C38.1336 12.2016 36.7995 12.5681 35.3923 12.7416C36.823 11.8922 37.9236 10.5375 38.4402 8.93719C37.1014 9.72187 35.6183 10.2984 34.0405 10.6022C32.7805 9.26625 30.9833 8.4375 28.992 8.4375C25.167 8.4375 22.0667 11.5106 22.0667 15.3C22.0667 15.8362 22.1295 16.3584 22.2477 16.8656C16.4933 16.5769 11.3895 13.8413 7.97516 9.69C7.37516 10.7044 7.03766 11.8922 7.03766 13.1456C7.03766 15.5278 8.25734 17.625 10.1173 18.8606C8.98203 18.8259 7.91328 18.51 6.97766 18.0038C6.97766 18.0244 6.97766 18.0553 6.97766 18.0844C6.97766 21.4134 9.36547 24.1856 12.5305 24.8166C11.952 24.975 11.3408 25.0631 10.7108 25.0631C10.2636 25.0631 9.82766 25.0125 9.40578 24.9366C10.287 27.6572 12.8436 29.6456 15.8727 29.7047C13.5027 31.5422 10.5177 32.6428 7.27203 32.6428C6.71141 32.6428 6.16297 32.6109 5.62109 32.5453C8.68766 34.4869 12.3289 35.625 16.2373 35.625C28.9733 35.625 35.9408 25.1663 35.9408 16.0931C35.9408 15.7959 35.9314 15.4997 35.9173 15.2072C37.2767 14.2472 38.4486 13.0359 39.3739 11.6522Z" fill="#03A9F4"/>
</svg>
