<svg width="37" height="37" viewBox="0 0 37 37" fill="none" xmlns="http://www.w3.org/2000/svg">
<path d="M36.4961 16.6205C36.4961 23.4275 33.1886 27.641 27.8036 27.641C25.0151 27.641 23.0246 26.4305 22.4411 24.3785H22.0301C21.1436 26.561 19.4576 27.6635 16.9706 27.6635C12.4736 27.6635 9.49009 24.0335 9.49009 18.545C9.49009 13.2935 12.3656 9.7505 16.6466 9.7505C18.9821 9.7505 20.8196 10.874 21.6851 12.8195H22.0961V10.2695H27.0686V21.2465C27.0686 22.781 27.7601 23.6885 28.9286 23.6885C30.8306 23.6885 32.0426 21.161 32.0426 17.141C32.0426 9.3185 26.9186 4.3055 18.9401 4.3055C10.6151 4.3055 4.95109 10.1405 4.95109 18.632C4.95109 27.2315 10.6586 32.6135 19.8266 32.6135C21.8156 32.6135 23.8691 32.354 24.9941 32.009V35.855C23.4371 36.263 21.4046 36.5 19.3496 36.5C8.04259 36.5 0.496094 29.3045 0.496094 18.521C0.496094 7.868 8.06359 0.5 19.0046 0.5C29.4266 0.5 36.4961 7.0265 36.4961 16.6205ZM15.1766 18.695C15.1766 21.5045 16.3436 23.189 18.3116 23.189C20.3006 23.189 21.5111 21.482 21.5111 18.695C21.5111 15.908 20.2781 14.201 18.3116 14.201C16.3451 14.201 15.1766 15.8855 15.1766 18.695Z" fill="white"/>
</svg>
