<svg width="28" height="29" viewBox="0 0 28 29" fill="none" xmlns="http://www.w3.org/2000/svg">
<path d="M17.652 19.7689C17.548 18.6397 17.5891 17.8521 17.5891 16.8213C18.1004 16.5533 19.0164 14.8443 19.1695 13.4006C19.5715 13.3678 20.2059 12.9768 20.3918 11.4291C20.4902 10.5979 20.0938 10.1303 19.8504 9.98262C20.5039 8.0166 21.8629 1.93262 17.3402 1.30371C16.8727 0.486133 15.6805 0.0732422 14.1328 0.0732422C7.93398 0.188086 7.1875 4.75449 8.54648 9.98262C8.30312 10.1303 7.90664 10.5979 8.00508 11.4291C8.19375 12.9768 8.82539 13.3678 9.22734 13.4006C9.38047 14.8443 10.332 16.5533 10.8461 16.8213C10.8461 17.8521 10.8844 18.6397 10.7805 19.7689C9.55547 23.0666 1.28125 22.1397 0.898438 28.4998H27.4984C27.1156 22.1397 18.877 23.0666 17.652 19.7689Z" fill="white"/>
</svg>
