<svg width="25" height="25" viewBox="0 0 25 25" fill="none" xmlns="http://www.w3.org/2000/svg">
<path d="M12.5 0C5.59687 0 0 5.59687 0 12.5C0 19.4031 5.59687 25 12.5 25C19.4031 25 25 19.4031 25 12.5C25 5.59687 19.4031 0 12.5 0ZM19.126 16.6323L17.1802 16.6594C17.1802 16.6594 16.7604 16.7417 16.2115 16.3625C15.4833 15.8625 14.7969 14.5615 14.2615 14.7302C13.7187 14.9031 13.7354 16.074 13.7354 16.074C13.7354 16.074 13.7396 16.2802 13.6156 16.4146C13.4812 16.5594 13.2177 16.5448 13.2177 16.5448H12.3458C12.3458 16.5448 10.4229 16.7042 8.72812 14.9375C6.88229 13.0115 5.25104 9.21042 5.25104 9.21042C5.25104 9.21042 5.15521 8.97083 5.25729 8.84792C5.37292 8.7125 5.68437 8.70833 5.68437 8.70833L7.76771 8.69792C7.76771 8.69792 7.96354 8.73229 8.10521 8.83646C8.22083 8.92187 8.28646 9.08229 8.28646 9.08229C8.28646 9.08229 8.62292 9.93542 9.06979 10.7083C9.94062 12.2146 10.3448 12.5448 10.6406 12.3833C11.0719 12.1479 10.9427 10.2542 10.9427 10.2542C10.9427 10.2542 10.951 9.56667 10.726 9.26042C10.551 9.02188 10.2219 8.95104 10.0781 8.93333C9.96042 8.91771 10.1521 8.64479 10.4021 8.52187C10.7771 8.33854 11.4396 8.32812 12.2219 8.33542C12.8312 8.34167 13.0073 8.37917 13.2448 8.4375C13.9635 8.61146 13.7198 9.28229 13.7198 10.8917C13.7198 11.4073 13.6271 12.1323 13.9979 12.3708C14.1583 12.474 14.549 12.3865 15.5229 10.726C15.9865 9.93854 16.3333 9.01354 16.3333 9.01354C16.3333 9.01354 16.4094 8.84896 16.5271 8.77812C16.6479 8.70521 16.8104 8.72812 16.8104 8.72812L19.0031 8.71458C19.0031 8.71458 19.6615 8.63542 19.7687 8.93437C19.8813 9.24687 19.5229 9.97708 18.6271 11.1719C17.1562 13.1344 16.9927 12.9521 18.2146 14.0875C19.3812 15.1719 19.6219 15.699 19.6625 15.7656C20.1448 16.5688 19.126 16.6323 19.126 16.6323Z" fill="#F3F3F3"/>
</svg>
