<svg width="37" height="37" viewBox="0 0 37 37" fill="none" xmlns="http://www.w3.org/2000/svg">
<path d="M18.5 0.5C8.5595 0.5 0.5 8.5595 0.5 18.5C0.5 28.4405 8.5595 36.5 18.5 36.5C28.4405 36.5 36.5 28.4405 36.5 18.5C36.5 8.5595 28.4405 0.5 18.5 0.5ZM28.0415 24.4505L25.2395 24.4895C25.2395 24.4895 24.635 24.608 23.8445 24.062C22.796 23.342 21.8075 21.4685 21.0365 21.7115C20.255 21.9605 20.279 23.6465 20.279 23.6465C20.279 23.6465 20.285 23.9435 20.1065 24.137C19.913 24.3455 19.5335 24.3245 19.5335 24.3245H18.278C18.278 24.3245 15.509 24.554 13.0685 22.01C10.4105 19.2365 8.0615 13.763 8.0615 13.763C8.0615 13.763 7.9235 13.418 8.0705 13.241C8.237 13.046 8.6855 13.04 8.6855 13.04L11.6855 13.025C11.6855 13.025 11.9675 13.0745 12.1715 13.2245C12.338 13.3475 12.4325 13.5785 12.4325 13.5785C12.4325 13.5785 12.917 14.807 13.5605 15.92C14.8145 18.089 15.3965 18.5645 15.8225 18.332C16.4435 17.993 16.2575 15.266 16.2575 15.266C16.2575 15.266 16.2695 14.276 15.9455 13.835C15.6935 13.4915 15.2195 13.3895 15.0125 13.364C14.843 13.3415 15.119 12.9485 15.479 12.7715C16.019 12.5075 16.973 12.4925 18.0995 12.503C18.977 12.512 19.2305 12.566 19.5725 12.65C20.6075 12.9005 20.2565 13.8665 20.2565 16.184C20.2565 16.9265 20.123 17.9705 20.657 18.314C20.888 18.4625 21.4505 18.3365 22.853 15.9455C23.5205 14.8115 24.02 13.4795 24.02 13.4795C24.02 13.4795 24.1295 13.2425 24.299 13.1405C24.473 13.0355 24.707 13.0685 24.707 13.0685L27.8645 13.049C27.8645 13.049 28.8125 12.935 28.967 13.3655C29.129 13.8155 28.613 14.867 27.323 16.5875C25.205 19.4135 24.9695 19.151 26.729 20.786C28.409 22.3475 28.7555 23.1065 28.814 23.2025C29.5085 24.359 28.0415 24.4505 28.0415 24.4505Z" fill="white"/>
</svg>
