<svg width="45" height="45" viewBox="0 0 45 45" fill="none" xmlns="http://www.w3.org/2000/svg">
<path d="M22.5 3.75C17.5272 3.75 12.7581 5.72544 9.24175 9.24175C5.72544 12.7581 3.75 17.5272 3.75 22.5C3.75 27.4728 5.72544 32.2419 9.24175 35.7583C12.7581 39.2746 17.5272 41.25 22.5 41.25C27.4728 41.25 32.2419 39.2746 35.7583 35.7583C39.2746 32.2419 41.25 27.4728 41.25 22.5C41.25 17.5272 39.2746 12.7581 35.7583 9.24175C32.2419 5.72544 27.4728 3.75 22.5 3.75Z" fill="#1976D2"/>
<path d="M33.6909 16.9134C33.7341 16.7719 33.7547 16.6406 33.7491 16.5234C33.735 16.1841 33.5016 15.9375 32.9522 15.9375H30.4978C29.8781 15.9375 29.5922 16.3125 29.4253 16.6884C29.4253 16.6884 27.8953 19.8375 26.1319 21.9141C25.56 22.515 25.2694 22.5 24.96 22.5C24.7941 22.5 24.375 22.2994 24.375 21.7491V16.8881C24.375 16.2375 24.2128 15.9375 23.6888 15.9375H19.3303C18.9488 15.9375 18.75 16.2375 18.75 16.5384C18.75 17.1638 19.5919 17.3137 19.6875 19.0659V22.4625C19.6875 23.2875 19.5441 23.4375 19.2347 23.4375C18.4003 23.4375 16.7578 20.625 15.6581 16.9388C15.42 16.2131 15.1819 15.9375 14.5622 15.9375H12.0844C11.3691 15.9375 11.25 16.2881 11.25 16.6631C11.25 17.3391 11.8125 20.9934 14.8828 25.1953C17.1094 28.2422 20.0428 30 22.6397 30C24.2128 30 24.3741 29.5997 24.3741 28.9744V26.1881C24.375 25.4372 24.5466 25.3125 25.0472 25.3125C25.4044 25.3125 26.1328 25.5469 27.5391 27.1875C29.1609 29.0794 29.4553 30 30.3853 30H32.8397C33.4097 30 33.7369 29.7609 33.75 29.2969C33.7528 29.1788 33.7359 29.0466 33.6975 28.8994C33.5156 28.3594 32.6813 27.0394 31.6406 25.7812C31.0641 25.0847 30.495 24.3947 30.2334 24.0197C30.0581 23.775 29.9916 23.6025 30 23.4375C30.0084 23.2641 30.0984 23.0991 30.2334 22.8684C30.2091 22.8684 33.3816 18.4144 33.6909 16.9134Z" fill="white"/>
</svg>
