<svg width="31" height="31" viewBox="0 0 31 31" fill="none" xmlns="http://www.w3.org/2000/svg">
<path d="M22.3039 0.12207C21.7844 0.12207 21.1719 0.228711 20.3352 0.450195C18.2297 1.00527 5.88398 4.42051 5.70078 4.4752C3.86875 5.16426 2.70938 5.84238 1.98203 6.64082C2.83516 6.06387 3.85234 5.7002 5.00078 5.7002H24.6008V3.35957C24.6008 2.22754 24.5926 0.12207 22.3039 0.12207ZM5.00078 7.1002C2.39766 7.1002 0.800781 9.54746 0.800781 11.3002V26.2627C0.800781 28.4311 2.56992 30.2002 4.73828 30.2002H26.2633C28.4316 30.2002 30.2008 28.4311 30.2008 26.2627V11.1908C30.2008 9.0498 28.1992 7.1002 26.0008 7.1002H5.00078ZM24.9508 16.9002C25.916 16.9002 26.7008 17.6822 26.7008 18.6502C26.7008 19.6182 25.916 20.4002 24.9508 20.4002C23.9828 20.4002 23.2008 19.6182 23.2008 18.6502C23.2008 17.6822 23.9828 16.9002 24.9508 16.9002Z" fill="white"/>
</svg>
