<svg width="27" height="20" viewBox="0 0 27 20" fill="none" xmlns="http://www.w3.org/2000/svg">
<path d="M25.9398 3.70039C25.7008 2.38086 24.5617 1.41992 23.2398 1.11992C21.2617 0.70039 17.6008 0.400391 13.6398 0.400391C9.68125 0.400391 5.96172 0.70039 3.98125 1.11992C2.66172 1.41992 1.52031 2.31992 1.28125 3.70039C1.03984 5.20039 0.800781 7.30039 0.800781 10.0004C0.800781 12.7004 1.03984 14.8004 1.33984 16.3004C1.58125 17.6199 2.72031 18.5809 4.03984 18.8809C6.13984 19.3004 9.73984 19.6004 13.7008 19.6004C17.6617 19.6004 21.2617 19.3004 23.3617 18.8809C24.6812 18.5809 25.8203 17.6809 26.0617 16.3004C26.3008 14.8004 26.6008 12.6395 26.6617 10.0004C26.5398 7.30039 26.2398 5.20039 25.9398 3.70039ZM10.4008 14.2004V5.80039L17.7203 10.0004L10.4008 14.2004Z" fill="#F3F3F3"/>
</svg>
